<svg version="1.1" id="Layer_1" xmlns="http://www.w3.org/2000/svg" x="0" y="0" viewBox="0 0 512 512" fill="#555" style="enable-background:new 0 0 512 512" xml:space="preserve"><path d="M491.841 156.427c-19.471-45.946-51.937-85.013-92.786-112.637C358.217 16.166 308.893-.007 256 0c-35.254-.002-68.946 7.18-99.571 20.158-45.945 19.472-85.013 51.935-112.638 92.785C16.167 153.78-.007 203.104 0 256c-.002 35.255 7.181 68.948 20.159 99.573 19.471 45.946 51.937 85.013 92.786 112.637C153.783 495.834 203.107 512.007 256 512c35.253.002 68.946-7.18 99.571-20.158 45.945-19.471 85.013-51.935 112.638-92.785C495.834 358.22 512.007 308.894 512 256c.002-35.255-7.181-68.948-20.159-99.573zm-31.428 185.832c-16.851 39.781-45.045 73.723-80.476 97.676-35.443 23.953-78.02 37.926-123.936 37.933-30.619-.002-59.729-6.218-86.255-17.454-39.781-16.851-73.724-45.044-97.677-80.475C48.114 344.495 34.14 301.917 34.133 256c.002-30.62 6.219-59.731 17.454-86.257 16.851-39.781 45.045-73.724 80.476-97.676C167.506 48.113 210.084 34.14 256 34.133c30.619.002 59.729 6.218 86.255 17.454 39.781 16.85 73.724 45.044 97.677 80.475 23.953 35.443 37.927 78.02 37.934 123.939-.002 30.62-6.218 59.731-17.453 86.258z"/><path d="M433.11 223.51c-6.359-14.999-16.927-27.712-30.24-36.717a83.271 83.271 0 0 0-21.864-10.524 83.3 83.3 0 0 0-24.812-3.764c-12.362-.011-24.036 2.613-34.69 6.984-9.338 3.823-17.934 8.94-25.971 14.798-14.059 10.268-26.501 22.793-38.382 35.605-.386.417-.764.837-1.149 1.256l-.249-.274c-6.661-7.219-13.506-14.351-20.697-21.066-10.79-10.06-22.363-19.233-35.455-26.079-6.542-3.416-13.469-6.23-20.791-8.185a88.893 88.893 0 0 0-23.007-3.038 83.146 83.146 0 0 0-32.491 6.581c-14.999 6.359-27.712 16.927-36.717 30.24a83.271 83.271 0 0 0-10.524 21.864 83.3 83.3 0 0 0-3.764 24.812 83.146 83.146 0 0 0 6.581 32.491c6.359 14.997 16.928 27.71 30.24 36.715a83.271 83.271 0 0 0 21.864 10.524 83.3 83.3 0 0 0 24.812 3.764c12.362.01 24.036-2.613 34.69-6.984 9.338-3.823 17.934-8.94 25.971-14.798 14.059-10.268 26.501-22.793 38.382-35.605.386-.417.764-.837 1.149-1.255l.249.274c6.661 7.219 13.506 14.351 20.697 21.066 10.79 10.06 22.363 19.233 35.455 26.079 6.542 3.414 13.469 6.23 20.791 8.185a88.893 88.893 0 0 0 23.007 3.038 83.164 83.164 0 0 0 32.491-6.581c14.999-6.359 27.712-16.927 36.717-30.24a83.271 83.271 0 0 0 10.524-21.864 83.297 83.297 0 0 0 3.764-24.811 83.146 83.146 0 0 0-6.581-32.491zm-201.902 34.973c-6.355 6.889-12.655 13.433-18.941 19.299-9.426 8.813-18.817 16.044-28.117 20.884-4.654 2.428-9.28 4.277-13.954 5.525-4.678 1.247-9.406 1.905-14.391 1.907a49.73 49.73 0 0 1-19.462-3.934c-8.968-3.795-16.665-10.183-22.079-18.195a49.852 49.852 0 0 1-6.306-13.094 49.834 49.834 0 0 1-2.251-14.873 49.722 49.722 0 0 1 3.934-19.461c3.795-8.967 10.183-16.665 18.196-22.079a49.82 49.82 0 0 1 13.096-6.306 49.834 49.834 0 0 1 14.873-2.251c7.708.01 14.84 1.562 22.044 4.497 6.287 2.569 12.592 6.242 18.941 10.873 11.116 8.086 22.275 19.114 33.553 31.311 1.039 1.122 2.085 2.278 3.127 3.418-.753.822-1.51 1.664-2.263 2.479zm171.152 16.981c-3.795 8.968-10.183 16.665-18.196 22.079a49.82 49.82 0 0 1-13.096 6.306 49.834 49.834 0 0 1-14.873 2.251c-7.708-.01-14.84-1.562-22.044-4.497-6.287-2.569-12.592-6.242-18.941-10.873-11.116-8.086-22.275-19.114-33.553-31.311-1.039-1.122-2.085-2.279-3.127-3.418.754-.825 1.511-1.667 2.263-2.481 6.355-6.889 12.655-13.433 18.941-19.299 9.426-8.813 18.817-16.044 28.117-20.884 4.654-2.428 9.28-4.277 13.954-5.525 4.678-1.247 9.406-1.905 14.391-1.907a49.73 49.73 0 0 1 19.462 3.934c8.968 3.795 16.665 10.183 22.079 18.196a49.852 49.852 0 0 1 6.306 13.094 49.834 49.834 0 0 1 2.251 14.873 49.702 49.702 0 0 1-3.934 19.462z"/></svg>