<svg version="1.1" id="Layer_1" xmlns="http://www.w3.org/2000/svg" x="0" y="0" viewBox="0 0 512 512" style="enable-background:new 0 0 512 512" xml:space="preserve"><circle style="fill:#ff7f4f" cx="256" cy="256" r="256"/><path style="fill:#d35933" d="M134.749 265.933 359.16 490.344c58.551-25.812 105.593-72.916 131.327-131.51L260.649 128.998l-125.9 136.935z"/><path transform="rotate(134.999 265.222 265.224)" style="fill:#386895" d="M250.999 222.557h28.444v85.333h-28.444z"/><path transform="rotate(134.999 260.362 270.066)" style="fill:#273b7a" d="M252.995 227.399h14.731v85.333h-14.731z"/><circle style="fill:#273b7a" cx="194.819" cy="194.819" r="93.091"/><path style="fill:#121149" d="M129.367 128.648c-.121.119-.248.229-.369.35-36.354 36.354-36.354 95.296 0 131.65s95.296 36.354 131.651 0c.121-.121.231-.248.35-.369L129.367 128.648z"/><circle style="fill:#38c6d9" cx="194.819" cy="194.819" r="71.111"/><path style="fill:#02b2b2" d="M144.908 144.189c-.121.119-.248.229-.369.35-27.77 27.77-27.77 72.795 0 100.566s72.795 27.77 100.566 0c.121-.121.231-.247.35-.369L144.908 144.189z"/><path style="fill:#273b7a" d="m407.028 384.883-22.145 22.145c-4.32 4.32-11.324 4.32-15.643 0L264.204 301.992c-4.32-4.32-4.32-11.323 0-15.643l22.145-22.145c4.32-4.32 11.324-4.32 15.643 0L407.028 369.24c4.32 4.32 4.32 11.323 0 15.643z"/><path style="fill:#121149" d="m275.635 274.916-11.431 11.431c-4.32 4.32-4.32 11.324 0 15.643L369.24 407.026c4.32 4.32 11.323 4.32 15.643 0l11.433-11.431-120.681-120.679z"/></svg>